<svg width="20" height="20" viewBox="0 0 20 20" fill="none" xmlns="http://www.w3.org/2000/svg"><path d="M10 12.8a2.8 2.8 0 1 0 0-5.6 2.8 2.8 0 0 0 0 5.6Z" stroke="currentColor" stroke-width="1.6"/><path d="M16.3 11.2V8.8l-2-.4a5 5 0 0 0-.5-1.1l1.1-1.7-1.7-1.7-1.7 1.1a5 5 0 0 0-1.1-.5L10 2.5H7.6l-.4 2a5 5 0 0 0-1.1.5L4.4 3.9 2.7 5.6l1.1 1.7a5 5 0 0 0-.5 1.1l-2 .4v2.4l2 .4c.1.4.3.8.5 1.1l-1.1 1.7 1.7 1.7 1.7-1.1c.3.2.7.4 1.1.5l.4 2h2.4l.4-2c.4-.1.8-.3 1.1-.5l1.7 1.1 1.7-1.7-1.1-1.7c.2-.3.4-.7.5-1.1l2-.4Z" stroke="currentColor" stroke-width="1.2" stroke-linejoin="round"/></svg>
