<svg width="132" height="34" viewBox="0 0 132 34" fill="none" xmlns="http://www.w3.org/2000/svg" role="img" aria-label="Likeli">
  <rect x="1" y="1" width="32" height="32" rx="10" fill="#FF3B30" fill-opacity="0.14" stroke="#FF3B30" stroke-opacity="0.38"/>
  <path d="M10.6 23.8V9.8H14.2V20.7H22.9V23.8H10.6Z" fill="#F4EFED"/>
  <path d="M43.4 24V8.5H47.1V20.8H54.6V24H43.4ZM57.4 24V12.4H61V24H57.4ZM57.2 10.8V7.7H61.2V10.8H57.2ZM64.6 24V8.1H68.2V16.6L72 12.4H76.3L71.8 17.1L76.5 24H72.2L69.3 19.5L68.2 20.6V24H64.6ZM83.8 24.3C80.1 24.3 77.6 21.9 77.6 18.2C77.6 14.6 80.1 12.1 83.6 12.1C87.1 12.1 89.4 14.5 89.4 18V19H81.1C81.4 20.6 82.3 21.5 83.9 21.5C85.1 21.5 85.9 21 86.3 20.2H89.3C88.7 22.7 86.6 24.3 83.8 24.3ZM81.2 16.8H85.9C85.7 15.5 84.9 14.8 83.6 14.8C82.4 14.8 81.5 15.5 81.2 16.8ZM92.2 24V8.1H95.8V24H92.2ZM99.3 24V12.4H102.9V24H99.3ZM99.1 10.8V7.7H103.1V10.8H99.1Z" fill="#F4EFED"/>
</svg>
